<?xml version="1.0" standalone="no"?><!DOCTYPE svg PUBLIC "-//W3C//DTD SVG 1.1//EN" "http://www.w3.org/Graphics/SVG/1.1/DTD/svg11.dtd"><svg class="icon" width="200px" height="200.00px" viewBox="0 0 1024 1024" version="1.1" xmlns="http://www.w3.org/2000/svg"><path fill="#333333" d="M512.00059 9.583314c-278.245719 0-503.805713 225.558778-503.805713 503.804497 0 278.244502 225.559995 503.804497 503.805713 503.804497 278.243286 0 503.804497-225.559995 503.804497-503.804497C1015.805087 235.143309 790.245092 9.583314 512.00059 9.583314zM837.132662 838.519883c-42.242478 42.241262-91.422794 75.397898-146.168948 98.557674-56.661844 23.964974-116.8741 36.114704-178.963123 36.114704-62.091456 0-122.302496-12.14973-178.965556-36.114704-54.743722-23.159776-103.925254-56.316412-146.166516-98.557674s-75.403979-91.421578-98.557674-146.167732c-23.963758-56.661844-36.11592-116.8741-36.11592-178.96434 0-62.096321 12.152162-122.308577 36.11592-178.965556 23.153695-54.746154 56.315196-103.925254 98.557674-146.167732 42.241262-42.242478 91.422794-75.403979 146.166516-98.557674 56.656979-23.96619 116.869235-36.114704 178.965556-36.114704 62.089024 0 122.301279 12.14973 178.963123 36.114704 54.746154 23.153695 103.925254 56.313979 146.168948 98.557674 42.241262 42.241262 75.396681 91.421578 98.556457 146.167732 23.964974 56.656979 36.114704 116.869235 36.114704 178.965556 0 62.09024-12.14973 122.302496-36.114704 178.96434C912.530559 747.098305 879.373924 796.278621 837.132662 838.519883z"  /><path fill="#333333" d="M746.696296 491.385963 534.001222 491.385963 534.001222 277.273886c0-12.152162-9.853335-21.998199-22.003065-21.998199-12.14973 0-21.996983 9.846037-21.996983 21.998199l0 214.112076L277.298802 491.385963c-12.152162 0-21.998199 9.852118-21.998199 22.001848 0 12.14973 9.846037 21.998199 21.998199 21.998199l212.701156 0 0 211.284154c0 12.150946 9.847253 22.003065 21.996983 22.003065 12.150946 0 22.003065-9.852118 22.003065-22.003065L534.000006 535.38601 746.696296 535.38601c12.150946 0 22.003065-9.84847 22.003065-21.998199C768.699361 501.238081 758.847242 491.385963 746.696296 491.385963z"  /></svg>