<?xml version="1.0" standalone="no"?><!DOCTYPE svg PUBLIC "-//W3C//DTD SVG 1.1//EN" "http://www.w3.org/Graphics/SVG/1.1/DTD/svg11.dtd"><svg t="1507088807681" class="icon" style="" viewBox="0 0 1024 1024" version="1.1" xmlns="http://www.w3.org/2000/svg" p-id="4202" xmlns:xlink="http://www.w3.org/1999/xlink" width="22" height="22"><defs><style type="text/css"></style></defs><circle cx="500" cy="500" r="360" style="fill:rgb(255,255,255); stroke:rgb(255,255,255)"></circle><path d="M511.014556 64.10297c-246.704798 0-447.402773 200.714348-447.402773 447.410959s200.697975 447.420169 447.402773 447.420169c246.714008 0 447.420169-200.723557 447.420169-447.420169S757.728564 64.10297 511.014556 64.10297zM728.915331 684.84051c12.313443 12.313443 12.313443 32.253588 0 44.567032-6.152117 6.152117-14.219863 9.228175-22.279423 9.228175-8.067746 0-16.135492-3.076058-22.287609-9.228175L511.022743 556.085054 337.697185 729.407542c-6.152117 6.152117-14.219863 9.228175-22.279423 9.228175-8.067746 0-16.135492-3.076058-22.287609-9.228175-12.313443-12.313443-12.313443-32.253588 0-44.567032l173.323511-173.323511L293.131177 338.197582c-12.313443-12.313443-12.313443-32.261775 0-44.575218 12.313443-12.304234 32.253588-12.304234 44.567032 0L511.022743 466.947921l173.325557-173.325557c12.313443-12.304234 32.253588-12.304234 44.567032 0 12.313443 12.313443 12.313443 32.261775 0 44.575218L555.591821 511.516999 728.915331 684.84051z" p-id="4203" fill="#f66e5d"></path></svg>