<?xml version="1.0" standalone="no"?><!DOCTYPE svg PUBLIC "-//W3C//DTD SVG 1.1//EN" "http://www.w3.org/Graphics/SVG/1.1/DTD/svg11.dtd"><svg t="1507316288067" class="icon" style="" viewBox="0 0 1024 1024" version="1.1" xmlns="http://www.w3.org/2000/svg" p-id="2341" xmlns:xlink="http://www.w3.org/1999/xlink" width="22" height="22"><defs><style type="text/css"></style></defs><path d="M448 800H288a32 32 0 0 1-32-32V256a32 32 0 0 1 32-32h160V160H288a96 96 0 0 0-96 96v512a96 96 0 0 0 96 96h160v-64zM649.376 617.376l45.248 45.248 128-128a32 32 0 0 0 0-45.248l-128-128-45.248 45.248L754.752 512l-105.376 105.376z" fill="#2c2c2c" p-id="2342"></path><path d="M800 480H416v64h384z" fill="#2c2c2c" p-id="2343"></path></svg>