<?xml version="1.0" standalone="no"?><!DOCTYPE svg PUBLIC "-//W3C//DTD SVG 1.1//EN" "http://www.w3.org/Graphics/SVG/1.1/DTD/svg11.dtd"><svg t="1509403322207" class="icon" style="" viewBox="0 0 1024 1024" version="1.1" xmlns="http://www.w3.org/2000/svg" p-id="1639" xmlns:xlink="http://www.w3.org/1999/xlink" width="24" height="24"><defs><style type="text/css"></style></defs><path d="M698.88 486.4H325.12c-14.08 0-25.6 11.52-25.6 25.6s11.52 25.6 25.6 25.6h373.76c14.08 0 25.6-11.52 25.6-25.6s-11.52-25.6-25.6-25.6z" p-id="1640" fill="#707070"></path><path d="M512 10.24C235.52 10.24 10.24 235.52 10.24 512S235.52 1013.76 512 1013.76 1013.76 788.48 1013.76 512 788.48 10.24 512 10.24z m0 952.32C263.68 962.56 61.44 760.32 61.44 512 61.44 263.68 263.68 61.44 512 61.44c248.32 0 450.56 202.24 450.56 450.56 0 248.32-202.24 450.56-450.56 450.56z" p-id="1641" fill="#707070"></path></svg>