<?xml version="1.0" standalone="no"?><!DOCTYPE svg PUBLIC "-//W3C//DTD SVG 1.1//EN" "http://www.w3.org/Graphics/SVG/1.1/DTD/svg11.dtd"><svg t="1507083167982" class="icon" style="" viewBox="0 0 1024 1024" version="1.1" xmlns="http://www.w3.org/2000/svg" p-id="2140" xmlns:xlink="http://www.w3.org/1999/xlink" width="200" height="200"><defs><style type="text/css"></style></defs><path d="M616.938 765.156c-17.562 0-29.688-12.781-29.688-30.375l-1.031-347.766c0-17.609 10.781-34.125 28.344-34.125 17.625 0 24.625 14.219 24.625 31.828l0 350.062c0 17.594-14.219 31.844-31.844 31.844L616.938 765.156zM411.438 764.625c-17.594 0-26.844-12.25-26.844-29.844L384.594 384.719c0-17.609 8.906-31.344 26.5-31.344 17.609 0 27.188 13.734 27.188 31.344l0 350.062C438.281 752.375 429.047 764.625 411.438 764.625L411.438 764.625zM925.594 235.266 766.469 235.266l0-73.328c0-52.641-42.469-95.469-94.75-95.469L352.766 66.469c-52.641 0-95.484 42.828-95.484 95.469l0 73.328L98.172 235.266c-17.609 0-31.141 11.125-31.141 28.734 0 17.594 13.531 25.234 31.141 25.234l827.422 0c17.625 0 31.375-9.203 31.375-26.797C956.969 244.828 943.219 235.266 925.594 235.266L925.594 235.266zM312.781 163.031c0-17.531-2.5-40.844 39.641-40.844l318.953 0c35.406-0.5 41.906 21.656 41.906 39.5l0 75-400.5-0.328L312.781 163.031 312.781 163.031zM734.781 957.562 289.172 957.562c-52.641 0-95.469-42.844-95.469-95.469L193.703 384.234c0-17.562 14.25-31.828 31.828-31.828 17.562 0 23.422 17.203 23.422 34.766l0 477.859c0 17.562 22.703 38 40.234 38l445.594 0c17.562 0 42.188-23.125 42.188-40.688L776.969 385.781c0-17.562 10.688-31.312 28.281-31.312s25.031 13.5 25.031 31.062l0 476.562C830.281 914.719 787.406 957.562 734.781 957.562L734.781 957.562z" p-id="2141" fill="#f66e5d"></path></svg>